<svg width="46" height="46" viewBox="0 0 46 46" fill="none" xmlns="http://www.w3.org/2000/svg">
<g clip-path="url(#clip0_199_19138)">
<path opacity="0.4" d="M45.1309 22.7437C45.1309 35.1084 35.1079 45.1314 22.7432 45.1314C10.3784 45.1314 0.355469 35.1084 0.355469 22.7437C0.355469 10.3812 10.3784 0.355957 22.7432 0.355957C35.1079 0.355957 45.1309 10.3812 45.1309 22.7437Z" fill="white"/>
<path d="M31.3853 15.3668L27.7585 26.8293C27.6242 27.2994 27.2436 27.68 26.7734 27.8166L15.3557 31.3964C14.5945 31.6449 13.8557 30.9038 14.102 30.1427L17.684 18.6578C17.8184 18.1876 18.1989 17.8294 18.6691 17.6727L30.1316 14.0907C30.9152 13.8444 31.6316 14.5832 31.3853 15.3668Z" fill="white"/>
</g>
<defs>
<clipPath id="clip0_199_19138">
<rect width="46" height="46" fill="white"/>
</clipPath>
</defs>
</svg>
