<svg width="22" height="19" viewBox="0 0 22 19" fill="none" xmlns="http://www.w3.org/2000/svg">
<g clip-path="url(#clip0_1_20668)">
<path opacity="0.4" d="M21.207 13.6255C21.207 16.5631 18.8323 18.9427 15.8744 18.9532H15.8638H5.35768C2.41046 18.9532 0.00390625 16.5841 0.00390625 13.6465V13.636C0.00390625 13.636 0.0102672 8.97571 0.0187484 6.6319C0.0198086 6.19177 0.528683 5.94539 0.875353 6.21914C3.39428 8.20391 7.89887 11.8228 7.95507 11.8702C8.70778 12.4693 9.66191 12.8073 10.6373 12.8073C11.6126 12.8073 12.5668 12.4693 13.3195 11.8586C13.3756 11.8218 17.7795 8.31131 20.3366 6.29391C20.6844 6.01909 21.1954 6.26547 21.1964 6.70455C21.207 9.03046 21.207 13.6255 21.207 13.6255Z" fill="white"/>
<path d="M20.6514 2.81552C19.7333 1.09715 17.9267 0 15.9379 0H5.35759C3.36873 0 1.56223 1.09715 0.644136 2.81552C0.438466 3.19985 0.536 3.67892 0.87843 3.95058L8.75008 10.2039C9.30135 10.6462 9.96924 10.8662 10.6372 10.8662C10.6414 10.8662 10.6445 10.8662 10.6478 10.8662C10.6509 10.8662 10.6552 10.8662 10.6583 10.8662C11.3263 10.8662 11.9942 10.6462 12.5454 10.2039L20.417 3.95058C20.7595 3.67892 20.857 3.19985 20.6514 2.81552Z" fill="white"/>
</g>
<defs>
<clipPath id="clip0_1_20668">
<rect width="22" height="19" fill="white" transform="translate(0.00390625)"/>
</clipPath>
</defs>
</svg>
